HIERARCHY
ROOT root
{
	OFFSET 0.000000 0.000000 0.000000
	CHANNELS 6 Xposition Yposition Zposition Zrotation Yrotation Xrotation
	JOINT lhip
	{
		OFFSET 0.058581 -0.082280 -0.017664
		CHANNELS 3 Zrotation Yrotation Xrotation
		JOINT lknee
		{
			OFFSET 0.043451 -0.386469 0.008037
			CHANNELS 3 Zrotation Yrotation Xrotation
			JOINT lankle
			{
				OFFSET -0.014790 -0.426874 -0.037428
				CHANNELS 3 Zrotation Yrotation Xrotation
				JOINT ltoe
				{
					OFFSET 0.041054 -0.060286 0.122042
					CHANNELS 3 Zrotation Yrotation Xrotation
					End Site
					{
						OFFSET 0.000000 0.000000 0.000000
					}
				}
			}
		}
	}
	JOINT rhip
	{
		OFFSET -0.060310 -0.090513 -0.013543
		CHANNELS 3 Zrotation Yrotation Xrotation
		JOINT rknee
		{
			OFFSET -0.043257 -0.383688 -0.004843
			CHANNELS 3 Zrotation Yrotation Xrotation
			JOINT rankle
			{
				OFFSET 0.019056 -0.420046 -0.034562
				CHANNELS 3 Zrotation Yrotation Xrotation
				JOINT rtoe
				{
					OFFSET -0.034840 -0.062106 0.130323
					CHANNELS 3 Zrotation Yrotation Xrotation
					End Site
					{
						OFFSET 0.000000 0.000000 0.000000
					}
				}
			}
		}
	}
	JOINT lowerback
	{
		OFFSET 0.004439 0.124404 -0.038385
		CHANNELS 3 Zrotation Yrotation Xrotation
		JOINT upperback
		{
			OFFSET 0.004488 0.137956 0.026820
			CHANNELS 3 Zrotation Yrotation Xrotation
			JOINT chest
			{
				OFFSET -0.002265 0.056032 0.002855
				CHANNELS 3 Zrotation Yrotation Xrotation
				JOINT lowerneck
				{
					OFFSET -0.013390 0.211636 -0.033468
					CHANNELS 3 Zrotation Yrotation Xrotation
					JOINT upperneck
					{
						OFFSET 0.010113 0.088937 0.050410
						CHANNELS 3 Zrotation Yrotation Xrotation
						End Site
						{
							OFFSET 0.000000 0.000000 0.000000
						}
					}
				}
				JOINT lclavicle
				{
					OFFSET 0.071702 0.114000 -0.018898
					CHANNELS 3 Zrotation Yrotation Xrotation
					JOINT lshoulder
					{
						OFFSET 0.122921 0.045205 -0.019046
						CHANNELS 3 Zrotation Yrotation Xrotation
						JOINT lelbow
						{
							OFFSET 0.255332 -0.015649 -0.022946
							CHANNELS 3 Zrotation Yrotation Xrotation
							JOINT lwrist
							{
								OFFSET 0.265709 0.012698 -0.007375
								CHANNELS 3 Zrotation Yrotation Xrotation
								End Site
								{
									OFFSET 0.000000 0.000000 0.000000
								}
							}
						}
					}
				}
				JOINT rclavicle
				{
					OFFSET -0.082954 0.112472 -0.023707
					CHANNELS 3 Zrotation Yrotation Xrotation
					JOINT rshoulder
					{
						OFFSET -0.113228 0.046853 -0.008472
						CHANNELS 3 Zrotation Yrotation Xrotation
						JOINT relbow
						{
							OFFSET -0.260127 -0.014369 -0.031269
							CHANNELS 3 Zrotation Yrotation Xrotation
							JOINT rwrist
							{
								OFFSET -0.269108 0.006794 -0.006027
								CHANNELS 3 Zrotation Yrotation Xrotation
								End Site
								{
									OFFSET 0.000000 0.000000 0.000000
								}
							}
						}
					}
				}
			}
		}
	}
}
MOTION
Frames: 5
Frame Time: 0.033333
0.594067 0.637197 0.594438 -84.103476 0.978143 57.555821 24.842277 15.181169 -52.213897 -6.499866 2.711397 75.710753 -8.040485 -1.461643 8.031321 0.000000 -0.000000 0.000000 -22.526604 -14.824025 -53.001700 -0.402860 -2.768399 82.043855 0.360241 -0.752389 3.323312 0.000000 -0.000000 0.000000 3.122585 -1.629144 68.958712 -2.113436 -2.394205 14.475889 2.959430 0.701560 -11.056575 -14.400707 -5.176775 -12.674963 10.265244 2.210371 -11.783554 -11.377853 -47.790703 2.010960 -24.291459 -16.732218 -4.323942 24.280878 -66.533352 1.884470 4.212447 -13.889574 13.217280 3.376590 53.480600 5.928685 20.128452 18.475553 -11.174404 -22.836258 62.073836 -7.162994 8.556983 5.407662 11.459261 
0.594202 0.637055 0.594345 -84.097361 0.975653 57.648264 24.745672 15.188221 -52.386613 -6.435840 2.643653 75.845598 -8.162714 -1.631636 8.021562 0.000000 -0.000000 0.000000 -22.495242 -14.953484 -53.118715 -0.564375 -2.763226 82.026619 0.288292 -0.714822 3.347389 0.000000 -0.000000 0.000000 3.181329 -1.708013 69.046177 -2.165701 -2.389190 13.830551 2.931626 0.617720 -10.482449 -14.270407 -5.172279 -13.014507 10.180131 2.067971 -11.590098 -11.096126 -47.654807 1.786368 -24.558167 -16.933321 -4.219849 24.592914 -66.394095 2.044215 4.677279 -13.967183 12.937219 3.152685 53.381876 5.720240 20.170164 18.578222 -11.196816 -22.428630 62.072594 -6.229570 8.572267 5.527127 11.001604 
0.594399 0.637049 0.594235 -84.137199 0.942457 57.713190 24.824651 15.233546 -52.413969 -6.360479 2.783529 75.845746 -8.224350 -1.768733 8.108637 0.000000 -0.000000 0.000000 -22.403513 -15.050802 -53.198178 -0.776987 -2.908067 81.872778 0.157678 -0.894373 3.134394 0.000000 -0.000000 0.000000 3.226642 -1.613344 68.746544 -2.127747 -2.373611 14.399765 2.922085 0.512011 -10.705452 -14.174322 -5.129058 -13.315431 10.078112 1.910953 -11.529961 -10.889684 -47.604357 1.572933 -24.619467 -17.017430 -4.163717 24.793607 -66.349261 1.933217 4.385877 -13.820821 12.880524 2.970500 53.356697 5.465139 20.036866 18.764927 -11.095580 -22.304753 61.912174 -6.007837 8.905363 5.588813 11.127574 
0.594272 0.637009 0.594367 -84.101370 0.958085 57.584223 24.825479 15.140137 -52.208540 -5.946681 3.034865 75.689401 -8.047639 -1.313368 7.739025 0.000000 -0.000000 0.000000 -22.503089 -14.972457 -53.054747 -0.644615 -2.901599 81.968210 0.171389 -0.947640 3.217431 0.000000 -0.000000 0.000000 3.146374 -1.699792 68.912662 -2.170016 -2.390092 14.305271 2.934888 0.577453 -10.696402 -14.172737 -5.247143 -13.307531 10.064429 2.025842 -11.619231 -10.817397 -47.594746 1.520057 -24.704460 -16.903139 -4.149332 24.784755 -66.454028 2.039759 3.660433 -13.430483 12.763354 3.003563 53.435656 5.517995 20.032592 18.644959 -11.170251 -22.199667 62.047019 -5.725389 9.817734 5.379116 10.868612 
0.594528 0.637043 0.594047 -84.130657 0.934805 57.658327 24.825553 15.163678 -52.328186 -6.164082 2.846314 75.732869 -8.291587 -1.493547 7.880545 0.000000 -0.000000 0.000000 -22.551125 -14.911322 -53.154557 -0.807610 -2.999590 81.969793 0.285280 -0.911233 3.193816 0.000000 -0.000000 0.000000 3.161811 -1.654473 68.555421 -2.141538 -2.380544 14.766039 2.861920 0.548097 -10.732576 -14.082602 -5.153911 -13.470170 9.917887 1.893304 -11.522860 -10.796127 -47.662001 1.500972 -24.490045 -16.931162 -4.181829 24.853231 -66.356360 1.738554 3.804951 -13.593586 12.896384 2.969029 53.371497 5.412252 19.955257 18.837425 -11.185182 -22.168018 61.850092 -5.974782 9.373783 5.372044 10.881718 
